<svg xmlns="http://www.w3.org/2000/svg" viewBox="0 0 81.82 86.82"><defs><style>.cls-1{fill:#fff;}</style></defs><title>scroll-arrows</title><g id="Layer_2" data-name="Layer 2"><g id="Layer_1-2" data-name="Layer 1"><rect class="cls-1" x="19.43" y="-4.43" width="8.95" height="56.68" transform="translate(-9.9 23.91) rotate(-45)"/><path class="cls-1" d="M7,1.41,46.41,40.78l-5.62,5.62L1.41,7,7,1.41M7,0,0,7,40.78,47.82l7-7L7,0Z"/><rect class="cls-1" x="29.57" y="19.44" width="56.68" height="8.95" transform="translate(0.05 47.95) rotate(-45)"/><path class="cls-1" d="M74.78,1.41,80.41,7,41,46.41l-5.62-5.62L74.78,1.41m0-1.41L34,40.78l7,7L81.82,7l-7-7Z"/><rect class="cls-1" x="19.44" y="34.57" width="8.95" height="56.68" transform="translate(-37.48 35.34) rotate(-45)"/><path class="cls-1" d="M7,40.41,46.41,79.78l-5.62,5.62L1.41,46,7,40.41M7,39,0,46,40.78,86.82l7-7L7,39Z"/><rect class="cls-1" x="29.57" y="58.44" width="56.68" height="8.95" transform="translate(-27.52 59.37) rotate(-45)"/><path class="cls-1" d="M74.78,40.41,80.41,46,41,85.41l-5.62-5.62L74.78,40.41m0-1.41L34,79.78l7,7L81.82,46l-7-7Z"/></g></g></svg>